<?xml version="1.0" encoding="iso-8859-1"?>
<!-- Uploaded to: SVG Repo, www.svgrepo.com, Generator: SVG Repo Mixer Tools -->
<!DOCTYPE svg PUBLIC "-//W3C//DTD SVG 1.1//EN" "http://www.w3.org/Graphics/SVG/1.1/DTD/svg11.dtd">
<svg fill="#000000" version="1.1" id="Capa_1" xmlns="http://www.w3.org/2000/svg" xmlns:xlink="http://www.w3.org/1999/xlink" 
	 width="800px" height="800px" viewBox="0 0 70.075 70.075"
	 xml:space="preserve">
<g>
	<g>
		<g>
			<path d="M27.704,13.346c-0.569,0-1.035,0.441-1.035,0.985c0,0.545,0.465,0.989,1.035,0.989H42.36
				c0.569,0,1.035-0.444,1.035-0.989c0-0.544-0.466-0.985-1.035-0.985H27.704z"/>
			<path d="M40.842,11.837c0.685-3.615,3.26-8.565,3.26-8.565S33.217-1.692,30.689,0.608c-1.021,0.929,1.485,4.466,0.558,5.492
				c-0.883,0.982-5.293,0-5.293,0s1.698,3.077,2.493,5.737H40.842z"/>
		</g>
		<g>
			<path d="M38.673,50.018c-0.689,1.195-1.691,1.795-3.004,1.795c-1.422,0-2.497-0.568-3.212-1.702
				c-0.434-0.682-0.735-1.489-0.909-2.418h5.569l0.443-1.512h-6.174c-0.004-0.169-0.009-0.345-0.009-0.532
				c0-0.403,0.009-0.786,0.035-1.149h5.702l0.441-1.513h-5.936c0.192-0.941,0.506-1.708,0.946-2.306
				c0.795-1.086,1.841-1.629,3.138-1.629c1.061,0,1.882,0.295,2.474,0.883c0.589,0.591,0.98,1.39,1.173,2.397h1.73
				c-0.1-1.327-0.606-2.512-1.525-3.556c-0.923-1.045-2.203-1.562-3.867-1.562c-1.953,0-3.479,0.8-4.589,2.406
				c-0.656,0.951-1.107,2.073-1.351,3.371h-2.256l-0.444,1.511h2.532c-0.016,0.262-0.026,0.524-0.026,0.786
				c0,0.306,0.01,0.603,0.026,0.895h-2.088l-0.444,1.513h2.679c0.278,1.85,0.907,3.296,1.883,4.329
				c1.039,1.104,2.318,1.651,3.845,1.651c1.768,0,3.171-0.671,4.213-2.01c0.876-1.117,1.389-2.495,1.546-4.14h-1.738
				C39.303,48.553,39.033,49.383,38.673,50.018z"/>
			<path d="M42.811,16.782c-0.144,0.025-0.297,0.044-0.447,0.044H27.706c-0.261,0-0.511-0.051-0.749-0.124
				c-10.182,9.693-15.702,24.238-15.702,33.012c0,11.243,11.478,20.36,23.781,20.36c12.3,0,23.784-9.117,23.784-20.36
				C58.815,40.838,53.13,27.646,42.811,16.782z M35.034,57.189c-6.491,0-11.749-5.26-11.749-11.745
				c0-6.492,5.258-11.753,11.749-11.753c6.488,0,11.749,5.261,11.749,11.753C46.783,51.929,41.522,57.189,35.034,57.189z"/>
		</g>
	</g>
</g>
</svg>