<?xml version="1.0" encoding="utf-8"?>
<!-- Uploaded to: SVG Repo, www.svgrepo.com, Generator: SVG Repo Mixer Tools -->
<svg width="800px" height="800px" viewBox="0 0 1024 1024" class="icon"  version="1.1" xmlns="http://www.w3.org/2000/svg"><path d="M496.6 481.7m-454.3 0a454.3 454.3 0 1 0 908.6 0 454.3 454.3 0 1 0-908.6 0Z" fill="#FCD170" /><path d="M421.1 1009c-2.1 0-4.1-0.6-5.9-1.9-4.4-3.3-5.4-9.5-2.1-14 59.3-80.6 108.6-161.7 146.4-241.1 34-71.2 59.1-141.7 74.7-209.6 26-113 25.4-219.8-1.8-300.9-9.5-28.3-22.1-52.8-36.6-70.8-13.2-16.4-27.5-27.4-41.6-31.5-21.7-6.5-41.8-4.7-59.7 5.3-44.8 25-63.6 92.6-63.8 93.3-1.4 5.3-6.9 8.5-12.3 7-5.3-1.4-8.5-6.9-7-12.2 0.2-0.8 5.3-19.3 16.6-41.4 15.5-30.2 34.6-51.8 56.7-64.2 22.8-12.7 48.1-15.1 75.2-7 36.8 11 70.9 54 91.4 115.2 13.3 39.6 20.6 85 21.8 134.7 1.3 55.7-5.2 115.3-19.5 177.1-16 69.3-41.6 141.2-76.2 213.7C539 841.2 489.1 923.5 429 1005c-1.8 2.6-4.9 4-7.9 4z" fill="" /><path d="M884 618.9s-46.7 90.3-123.5 105.6c-76.8 15.3-154.6-50.3-154.6-50.3s46.7-90.3 123.5-105.6c76.8-15.2 154.6 50.3 154.6 50.3z" fill="#60C13D" /><path d="M736.7 736.8c-27.1 0-56.7-7.7-86.8-22.7-29.8-14.8-49.6-31.5-50.5-32.2-3.6-3-4.6-8.1-2.4-12.2 2-3.9 49.9-94.8 130.5-110.8 33.6-6.7 72.5 0.3 112.5 20.3 29.8 14.8 49.6 31.5 50.5 32.2 3.6 3 4.6 8.1 2.4 12.2-2 3.9-49.9 94.8-130.5 110.8-8.3 1.6-16.8 2.4-25.7 2.4z m-117.8-65.1c7.8 5.8 22.2 15.7 40.4 24.7 25 12.4 62.5 25.7 99.2 18.3 59-11.7 99.9-72.2 112.5-93.2-7.8-5.8-22.2-15.7-40.4-24.7-25-12.4-62.5-25.7-99.2-18.3-59 11.7-99.9 72.2-112.5 93.2z" fill="" /><path d="M542.2 782.5s-74.6 82.1-157.9 75.4c-83.3-6.7-143.8-99.6-143.8-99.6s74.6-82.1 157.9-75.4c83.3 6.7 143.8 99.6 143.8 99.6z" fill="#60C13D" /><path d="M393.8 868.2c-3.5 0-6.9-0.1-10.3-0.4-36.4-2.9-74.1-21.9-109.2-55-26.1-24.6-41.6-48.1-42.2-49.1-2.5-3.8-2.1-8.8 1-12.2 0.8-0.9 19.8-21.6 49.5-41.8 39.9-27 80.2-39.8 116.6-36.9 36.4 2.9 74.1 21.9 109.2 55 26.1 24.6 41.6 48.1 42.2 49.1 2.5 3.8 2.1 8.8-1 12.2-0.8 0.9-19.8 21.6-49.5 41.8-36.2 24.6-72.7 37.3-106.3 37.3zM253.5 759.3c6.2 8.4 18.3 23.7 34.9 39.3 22.1 20.7 56.8 46.1 96.8 49.3 65 5.2 125.8-48.6 144.1-66.5-6.2-8.4-18.3-23.7-34.9-39.3-22.1-20.7-56.8-46.1-96.8-49.3-40-3.2-78.3 16.3-103.4 33.2-18.8 12.8-33.3 26-40.7 33.3z" fill="" /><path d="M557.1 531.3l-77.9-93.5-72.2 93.5-56.5-93.5-93.5 93.5V340c0-75.1 60.9-136 136-136h28.1c75.1 0 136 60.9 136 136v191.3z" fill="#A86B48" /><path d="M557.1 541.3c-2.9 0-5.7-1.3-7.7-3.6l-70-83.9-64.4 83.6c-2 2.6-5.2 4.1-8.5 3.9-3.3-0.2-6.3-2-8-4.8l-49.9-82.6-84.5 84.5c-2.9 2.9-7.2 3.7-10.9 2.2s-6.2-5.2-6.2-9.2V340c0-80.5 65.5-146 146-146h28.1c80.5 0 146 65.5 146 146v191.4c0 4.2-2.6 8-6.6 9.4-1.1 0.3-2.3 0.5-3.4 0.5zM350.5 427.8c0.4 0 0.8 0 1.2 0.1 3.1 0.4 5.8 2.1 7.4 4.8l49 81 63.2-82c1.9-2.4 4.7-3.8 7.7-3.9 3-0.1 5.9 1.3 7.9 3.6l60.3 72.3V340c0-69.5-56.5-126-126-126H393c-69.5 0-126 56.5-126 126v167.2l76.5-76.5c1.8-1.9 4.4-2.9 7-2.9z" fill="" /></svg>